<?xml version="1.0" encoding="utf-8"?>
<!-- Generator: Adobe Illustrator 18.1.1, SVG Export Plug-In . SVG Version: 6.00 Build 0)  -->
<!DOCTYPE svg PUBLIC "-//W3C//DTD SVG 1.1//EN" "http://www.w3.org/Graphics/SVG/1.1/DTD/svg11.dtd">
<svg version="1.1" id="ICONS" xmlns="http://www.w3.org/2000/svg" xmlns:xlink="http://www.w3.org/1999/xlink" x="0px" y="0px"
	 viewBox="0 0 22 22" enable-background="new 0 0 22 22" xml:space="preserve">
<g>
	<path fill="#37a0dc" d="M13.7,4.8c-2.5-2.5-6.4-2.5-8.9,0c-2.4,2.5-2.4,6.4,0,8.9c2.2,2.2,5.6,2.4,8,0.7c0.1,0.2,0.2,0.5,0.4,0.7
		l3.6,3.6c0.5,0.5,1.4,0.5,1.9,0c0.5-0.5,0.5-1.4,0-1.9l-3.6-3.6c-0.2-0.2-0.4-0.3-0.7-0.4C16.1,10.4,15.9,7,13.7,4.8z M12.6,12.6
		c-1.8,1.8-4.8,1.8-6.6,0c-1.8-1.8-1.8-4.8,0-6.6c1.8-1.8,4.8-1.8,6.6,0C14.4,7.8,14.4,10.7,12.6,12.6z" />
</g>
</svg>
